<svg width="453" height="626" viewBox="0 0 453 626" fill="none" xmlns="http://www.w3.org/2000/svg">
<g clip-path="url(#clip0_1101_14379)">
<rect width="453" height="626" rx="23" fill="black"/>
<g opacity="0.3" clip-path="url(#clip1_1101_14379)">
<path opacity="0.09" d="M-47 -37L7 17" stroke="white" stroke-width="3.5"/>
<path opacity="0.74" d="M61 -37L7 17" stroke="white" stroke-width="3.5"/>
<path opacity="0.75" d="M61 -37L115 17" stroke="white" stroke-width="3.5"/>
<path opacity="0.18" d="M169 -37L115 17" stroke="white" stroke-width="3.5"/>
<path opacity="0.32" d="M169 -37L223 17" stroke="white" stroke-width="3.5"/>
<path opacity="0.3" d="M277 -37L223 17" stroke="white" stroke-width="3.5"/>
<path opacity="0.1" d="M331 -37L277 17" stroke="white" stroke-width="3.5"/>
<path opacity="0.52" d="M331 -37L385 17" stroke="white" stroke-width="3.5"/>
<path opacity="0.18" d="M385 -37L439 17" stroke="white" stroke-width="3.5"/>
<path opacity="0.55" d="M439 -37L493 17" stroke="white" stroke-width="3.5"/>
<path opacity="0.79" d="M-47 17L7 71" stroke="white" stroke-width="3.5"/>
<path opacity="0.08" d="M7 17L61 71" stroke="white" stroke-width="3.5"/>
<path opacity="0.34" d="M115 17L61 71" stroke="white" stroke-width="3.5"/>
<path opacity="0.33" d="M115 17L169 71" stroke="white" stroke-width="3.5"/>
<path opacity="0.1" d="M169 17L223 71" stroke="white" stroke-width="3.5"/>
<path opacity="0.85" d="M223 17L277 71" stroke="white" stroke-width="3.5"/>
<path opacity="0.43" d="M331 17L277 71" stroke="white" stroke-width="3.5"/>
<path opacity="0.92" d="M385 17L331 71" stroke="white" stroke-width="3.5"/>
<path opacity="0.4" d="M439 17L385 71" stroke="white" stroke-width="3.5"/>
<path opacity="0.92" d="M493 17L439 71" stroke="white" stroke-width="3.5"/>
<path opacity="0.5" d="M7 71L-47 125" stroke="white" stroke-width="3.5"/>
<path opacity="0.21" d="M7 71L61 125" stroke="white" stroke-width="3.5"/>
<path opacity="0.17" d="M115 71L61 125" stroke="white" stroke-width="3.5"/>
<path opacity="0.51" d="M115 71L169 125" stroke="white" stroke-width="3.5"/>
<path opacity="0.78" d="M169 71L223 125" stroke="white" stroke-width="3.5"/>
<path opacity="0.56" d="M277 71L223 125" stroke="white" stroke-width="3.5"/>
<path opacity="0.67" d="M277 71L331 125" stroke="white" stroke-width="3.5"/>
<path opacity="0.59" d="M385 71L331 125" stroke="white" stroke-width="3.5"/>
<path opacity="0.81" d="M439 71L385 125" stroke="white" stroke-width="3.5"/>
<path opacity="0.08" d="M439 71L493 125" stroke="white" stroke-width="3.5"/>
<path opacity="0.37" d="M7 125L-47 179" stroke="white" stroke-width="3.5"/>
<path opacity="0.28" d="M7 125L61 179" stroke="white" stroke-width="3.5"/>
<path opacity="0.07" d="M115 125L61 179" stroke="white" stroke-width="3.5"/>
<path opacity="0.75" d="M169 125L115 179" stroke="white" stroke-width="3.5"/>
<path opacity="0.82" d="M169 125L223 179" stroke="white" stroke-width="3.5"/>
<path opacity="0.86" d="M277 125L223 179" stroke="white" stroke-width="3.5"/>
<path opacity="0.42" d="M277 125L331 179" stroke="white" stroke-width="3.5"/>
<path opacity="0.07" d="M385 125L331 179" stroke="white" stroke-width="3.5"/>
<path opacity="0.25" d="M439 125L385 179" stroke="white" stroke-width="3.5"/>
<path opacity="0.61" d="M439 125L493 179" stroke="white" stroke-width="3.5"/>
<path opacity="0.3" d="M-47 179L7 233" stroke="white" stroke-width="3.5"/>
<path opacity="0.85" d="M7 179L61 233" stroke="white" stroke-width="3.5"/>
<path opacity="0.66" d="M61 179L115 233" stroke="white" stroke-width="3.5"/>
<path opacity="0.15" d="M115 179L169 233" stroke="white" stroke-width="3.5"/>
<path opacity="0.13" d="M169 179L223 233" stroke="white" stroke-width="3.5"/>
<path opacity="0.15" d="M223 179L277 233" stroke="white" stroke-width="3.5"/>
<path opacity="0.58" d="M331 179L277 233" stroke="white" stroke-width="3.5"/>
<path opacity="0.89" d="M331 179L385 233" stroke="white" stroke-width="3.5"/>
<path opacity="0.16" d="M439 179L385 233" stroke="white" stroke-width="3.5"/>
<path opacity="0.35" d="M439 179L493 233" stroke="white" stroke-width="3.5"/>
<path opacity="0.16" d="M7 233L-47 287" stroke="white" stroke-width="3.5"/>
<path opacity="0.86" d="M61 233L7 287" stroke="white" stroke-width="3.5"/>
<path opacity="0.75" d="M61 233L115 287" stroke="white" stroke-width="3.5"/>
<path opacity="0.47" d="M115 233L169 287" stroke="white" stroke-width="3.5"/>
<path opacity="0.64" d="M223 233L169 287" stroke="white" stroke-width="3.5"/>
<path opacity="0.28" d="M223 233L277 287" stroke="white" stroke-width="3.5"/>
<path opacity="0.17" d="M331 233L277 287" stroke="white" stroke-width="3.5"/>
<path opacity="0.58" d="M331 233L385 287" stroke="white" stroke-width="3.5"/>
<path opacity="0.24" d="M385 233L439 287" stroke="white" stroke-width="3.5"/>
<path opacity="0.45" d="M493 233L439 287" stroke="white" stroke-width="3.5"/>
<path opacity="0.14" d="M-47 287L7 341" stroke="white" stroke-width="3.5"/>
<path opacity="0.5" d="M7 287L61 341" stroke="white" stroke-width="3.5"/>
<path opacity="0.76" d="M115 287L61 341" stroke="white" stroke-width="3.5"/>
<path opacity="0.87" d="M169 287L115 341" stroke="white" stroke-width="3.5"/>
<path opacity="0.49" d="M223 287L169 341" stroke="white" stroke-width="3.5"/>
<path opacity="0.9" d="M277 287L223 341" stroke="white" stroke-width="3.5"/>
<path opacity="0.78" d="M277 287L331 341" stroke="white" stroke-width="3.5"/>
<path opacity="0.18" d="M385 287L331 341" stroke="white" stroke-width="3.5"/>
<path opacity="0.77" d="M385 287L439 341" stroke="white" stroke-width="3.5"/>
<path opacity="0.79" d="M493 287L439 341" stroke="white" stroke-width="3.5"/>
<path opacity="0.31" d="M-47 341L7 395" stroke="white" stroke-width="3.5"/>
<path opacity="0.59" d="M7 341L61 395" stroke="white" stroke-width="3.5"/>
<path opacity="0.33" d="M61 341L115 395" stroke="white" stroke-width="3.5"/>
<path opacity="0.62" d="M115 341L169 395" stroke="white" stroke-width="3.5"/>
<path opacity="0.84" d="M223 341L169 395" stroke="white" stroke-width="3.5"/>
<path opacity="0.89" d="M223 341L277 395" stroke="white" stroke-width="3.5"/>
<path opacity="0.45" d="M277 341L331 395" stroke="white" stroke-width="3.5"/>
<path opacity="0.5" d="M331 341L385 395" stroke="white" stroke-width="3.5"/>
<path opacity="0.51" d="M385 341L439 395" stroke="white" stroke-width="3.5"/>
<path opacity="0.4" d="M493 341L439 395" stroke="white" stroke-width="3.5"/>
<path opacity="0.98" d="M-47 395L7 449" stroke="white" stroke-width="3.5"/>
<path opacity="0.94" d="M61 395L7 449" stroke="white" stroke-width="3.5"/>
<path opacity="0.7" d="M115 395L61 449" stroke="white" stroke-width="3.5"/>
<path opacity="0.28" d="M169 395L115 449" stroke="white" stroke-width="3.5"/>
<path opacity="0.27" d="M169 395L223 449" stroke="white" stroke-width="3.5"/>
<path opacity="0.61" d="M223 395L277 449" stroke="white" stroke-width="3.5"/>
<path opacity="0.31" d="M277 395L331 449" stroke="white" stroke-width="3.5"/>
<path opacity="0.4" d="M385 395L331 449" stroke="white" stroke-width="3.5"/>
<path opacity="0.26" d="M439 395L385 449" stroke="white" stroke-width="3.5"/>
<path opacity="0.13" d="M439 395L493 449" stroke="white" stroke-width="3.5"/>
<path opacity="0.98" d="M-47 449L7 503" stroke="white" stroke-width="3.5"/>
<path opacity="0.4" d="M7 449L61 503" stroke="white" stroke-width="3.5"/>
<path opacity="0.53" d="M115 449L61 503" stroke="white" stroke-width="3.5"/>
<path opacity="0.24" d="M169 449L115 503" stroke="white" stroke-width="3.5"/>
<path opacity="0.1" d="M169 449L223 503" stroke="white" stroke-width="3.5"/>
<path opacity="0.56" d="M223 449L277 503" stroke="white" stroke-width="3.5"/>
<path opacity="0.56" d="M331 449L277 503" stroke="white" stroke-width="3.5"/>
<path opacity="0.44" d="M331 449L385 503" stroke="white" stroke-width="3.5"/>
<path opacity="0.68" d="M439 449L385 503" stroke="white" stroke-width="3.5"/>
<path opacity="0.61" d="M493 449L439 503" stroke="white" stroke-width="3.5"/>
<path opacity="0.58" d="M-47 503L7 557" stroke="white" stroke-width="3.5"/>
<path opacity="0.64" d="M7 503L61 557" stroke="white" stroke-width="3.5"/>
<path opacity="0.17" d="M61 503L115 557" stroke="white" stroke-width="3.5"/>
<path opacity="0.78" d="M169 503L115 557" stroke="white" stroke-width="3.5"/>
<path opacity="0.71" d="M223 503L169 557" stroke="white" stroke-width="3.5"/>
<path opacity="0.54" d="M223 503L277 557" stroke="white" stroke-width="3.5"/>
<path opacity="0.46" d="M331 503L277 557" stroke="white" stroke-width="3.5"/>
<path opacity="0.23" d="M331 503L385 557" stroke="white" stroke-width="3.5"/>
<path opacity="0.78" d="M439 503L385 557" stroke="white" stroke-width="3.5"/>
<path opacity="0.31" d="M493 503L439 557" stroke="white" stroke-width="3.5"/>
<path opacity="0.61" d="M-47 557L7 611" stroke="white" stroke-width="3.5"/>
<path opacity="0.7" d="M7 557L61 611" stroke="white" stroke-width="3.5"/>
<path opacity="0.78" d="M61 557L115 611" stroke="white" stroke-width="3.5"/>
<path opacity="0.12" d="M115 557L169 611" stroke="white" stroke-width="3.5"/>
<path opacity="0.61" d="M223 557L169 611" stroke="white" stroke-width="3.5"/>
<path opacity="0.92" d="M277 557L223 611" stroke="white" stroke-width="3.5"/>
<path opacity="0.58" d="M277 557L331 611" stroke="white" stroke-width="3.5"/>
<path opacity="0.13" d="M331 557L385 611" stroke="white" stroke-width="3.5"/>
<path opacity="0.29" d="M385 557L439 611" stroke="white" stroke-width="3.5"/>
<path opacity="0.26" d="M493 557L439 611" stroke="white" stroke-width="3.5"/>
<path opacity="0.6" d="M-47 611L7 665" stroke="white" stroke-width="3.5"/>
<path opacity="0.62" d="M7 611L61 665" stroke="white" stroke-width="3.5"/>
<path opacity="0.37" d="M115 611L61 665" stroke="white" stroke-width="3.5"/>
<path opacity="0.77" d="M169 611L115 665" stroke="white" stroke-width="3.5"/>
<path opacity="0.43" d="M169 611L223 665" stroke="white" stroke-width="3.5"/>
<path opacity="0.17" d="M223 611L277 665" stroke="white" stroke-width="3.5"/>
<path opacity="0.92" d="M331 611L277 665" stroke="white" stroke-width="3.5"/>
<path opacity="0.75" d="M331 611L385 665" stroke="white" stroke-width="3.5"/>
<path opacity="0.64" d="M439 611L385 665" stroke="white" stroke-width="3.5"/>
<path opacity="0.68" d="M493 611L439 665" stroke="white" stroke-width="3.5"/>
</g>
</g>
<defs>
<clipPath id="clip0_1101_14379">
<rect width="453" height="626" rx="23" fill="white"/>
</clipPath>
<clipPath id="clip1_1101_14379">
<rect width="1422" height="800" fill="white" transform="translate(-101 -145)"/>
</clipPath>
</defs>
</svg>
