<svg width="920" height="406" viewBox="0 0 920 406" fill="none" xmlns="http://www.w3.org/2000/svg">
<g clip-path="url(#clip0_1101_13528)">
<rect width="920" height="406" rx="23" fill="#A3D32A"/>
<g opacity="0.4" clip-path="url(#clip1_1101_13528)">
<path opacity="0.09" d="M-47 -37L7 17" stroke="#70A02A" stroke-width="3.5"/>
<path opacity="0.74" d="M61 -37L7 17" stroke="#70A02A" stroke-width="3.5"/>
<path opacity="0.75" d="M61 -37L115 17" stroke="#70A02A" stroke-width="3.5"/>
<path opacity="0.18" d="M169 -37L115 17" stroke="#70A02A" stroke-width="3.5"/>
<path opacity="0.32" d="M169 -37L223 17" stroke="#70A02A" stroke-width="3.5"/>
<path opacity="0.3" d="M277 -37L223 17" stroke="#70A02A" stroke-width="3.5"/>
<path opacity="0.1" d="M331 -37L277 17" stroke="#70A02A" stroke-width="3.5"/>
<path opacity="0.52" d="M331 -37L385 17" stroke="#70A02A" stroke-width="3.5"/>
<path opacity="0.18" d="M385 -37L439 17" stroke="#70A02A" stroke-width="3.5"/>
<path opacity="0.55" d="M439 -37L493 17" stroke="#70A02A" stroke-width="3.5"/>
<path opacity="0.8" d="M493 -37L547 17" stroke="#70A02A" stroke-width="3.5"/>
<path opacity="0.83" d="M547 -37L601 17" stroke="#70A02A" stroke-width="3.5"/>
<path opacity="0.64" d="M655 -37L601 17" stroke="#70A02A" stroke-width="3.5"/>
<path opacity="0.96" d="M709 -37L655 17" stroke="#70A02A" stroke-width="3.5"/>
<path opacity="0.66" d="M709 -37L763 17" stroke="#70A02A" stroke-width="3.5"/>
<path opacity="0.56" d="M763 -37L817 17" stroke="#70A02A" stroke-width="3.5"/>
<path opacity="0.81" d="M871 -37L817 17" stroke="#70A02A" stroke-width="3.5"/>
<path opacity="0.76" d="M925 -37L871 17" stroke="#70A02A" stroke-width="3.5"/>
<path opacity="0.79" d="M-47 17L7 71" stroke="#70A02A" stroke-width="3.5"/>
<path opacity="0.08" d="M7 17L61 71" stroke="#70A02A" stroke-width="3.5"/>
<path opacity="0.34" d="M115 17L61 71" stroke="#70A02A" stroke-width="3.5"/>
<path opacity="0.33" d="M115 17L169 71" stroke="#70A02A" stroke-width="3.5"/>
<path opacity="0.1" d="M169 17L223 71" stroke="#70A02A" stroke-width="3.5"/>
<path opacity="0.85" d="M223 17L277 71" stroke="#70A02A" stroke-width="3.5"/>
<path opacity="0.43" d="M331 17L277 71" stroke="#70A02A" stroke-width="3.5"/>
<path opacity="0.92" d="M385 17L331 71" stroke="#70A02A" stroke-width="3.5"/>
<path opacity="0.4" d="M439 17L385 71" stroke="#70A02A" stroke-width="3.5"/>
<path opacity="0.92" d="M493 17L439 71" stroke="#70A02A" stroke-width="3.5"/>
<path opacity="0.81" d="M547 17L493 71" stroke="#70A02A" stroke-width="3.5"/>
<path opacity="0.42" d="M547 17L601 71" stroke="#70A02A" stroke-width="3.5"/>
<path opacity="0.47" d="M601 17L655 71" stroke="#70A02A" stroke-width="3.5"/>
<path opacity="0.09" d="M709 17L655 71" stroke="#70A02A" stroke-width="3.5"/>
<path opacity="0.74" d="M709 17L763 71" stroke="#70A02A" stroke-width="3.5"/>
<path opacity="0.64" d="M817 17L763 71" stroke="#70A02A" stroke-width="3.5"/>
<path opacity="0.23" d="M817 17L871 71" stroke="#70A02A" stroke-width="3.5"/>
<path opacity="0.33" d="M871 17L925 71" stroke="#70A02A" stroke-width="3.5"/>
<path opacity="0.5" d="M7 71L-47 125" stroke="#70A02A" stroke-width="3.5"/>
<path opacity="0.21" d="M7 71L61 125" stroke="#70A02A" stroke-width="3.5"/>
<path opacity="0.17" d="M115 71L61 125" stroke="#70A02A" stroke-width="3.5"/>
<path opacity="0.51" d="M115 71L169 125" stroke="#70A02A" stroke-width="3.5"/>
<path opacity="0.78" d="M169 71L223 125" stroke="#70A02A" stroke-width="3.5"/>
<path opacity="0.56" d="M277 71L223 125" stroke="#70A02A" stroke-width="3.5"/>
<path opacity="0.67" d="M277 71L331 125" stroke="#70A02A" stroke-width="3.5"/>
<path opacity="0.59" d="M385 71L331 125" stroke="#70A02A" stroke-width="3.5"/>
<path opacity="0.81" d="M439 71L385 125" stroke="#70A02A" stroke-width="3.5"/>
<path opacity="0.08" d="M439 71L493 125" stroke="#70A02A" stroke-width="3.5"/>
<path opacity="0.24" d="M493 71L547 125" stroke="#70A02A" stroke-width="3.5"/>
<path opacity="0.62" d="M547 71L601 125" stroke="#70A02A" stroke-width="3.5"/>
<path opacity="0.19" d="M601 71L655 125" stroke="#70A02A" stroke-width="3.5"/>
<path opacity="0.34" d="M655 71L709 125" stroke="#70A02A" stroke-width="3.5"/>
<path opacity="0.91" d="M709 71L763 125" stroke="#70A02A" stroke-width="3.5"/>
<path opacity="0.17" d="M817 71L763 125" stroke="#70A02A" stroke-width="3.5"/>
<path opacity="0.53" d="M871 71L817 125" stroke="#70A02A" stroke-width="3.5"/>
<path opacity="0.44" d="M871 71L925 125" stroke="#70A02A" stroke-width="3.5"/>
<path opacity="0.37" d="M7 125L-47 179" stroke="#70A02A" stroke-width="3.5"/>
<path opacity="0.28" d="M7 125L61 179" stroke="#70A02A" stroke-width="3.5"/>
<path opacity="0.07" d="M115 125L61 179" stroke="#70A02A" stroke-width="3.5"/>
<path opacity="0.75" d="M169 125L115 179" stroke="#70A02A" stroke-width="3.5"/>
<path opacity="0.82" d="M169 125L223 179" stroke="#70A02A" stroke-width="3.5"/>
<path opacity="0.86" d="M277 125L223 179" stroke="#70A02A" stroke-width="3.5"/>
<path opacity="0.42" d="M277 125L331 179" stroke="#70A02A" stroke-width="3.5"/>
<path opacity="0.07" d="M385 125L331 179" stroke="#70A02A" stroke-width="3.5"/>
<path opacity="0.25" d="M439 125L385 179" stroke="#70A02A" stroke-width="3.5"/>
<path opacity="0.61" d="M439 125L493 179" stroke="#70A02A" stroke-width="3.5"/>
<path opacity="0.12" d="M493 125L547 179" stroke="#70A02A" stroke-width="3.5"/>
<path opacity="0.32" d="M547 125L601 179" stroke="#70A02A" stroke-width="3.5"/>
<path opacity="0.79" d="M601 125L655 179" stroke="#70A02A" stroke-width="3.5"/>
<path opacity="0.09" d="M709 125L655 179" stroke="#70A02A" stroke-width="3.5"/>
<path opacity="0.57" d="M763 125L709 179" stroke="#70A02A" stroke-width="3.5"/>
<path opacity="0.24" d="M817 125L763 179" stroke="#70A02A" stroke-width="3.5"/>
<path opacity="0.71" d="M871 125L817 179" stroke="#70A02A" stroke-width="3.5"/>
<path opacity="0.33" d="M871 125L925 179" stroke="#70A02A" stroke-width="3.5"/>
<path opacity="0.3" d="M-47 179L7 233" stroke="#70A02A" stroke-width="3.5"/>
<path opacity="0.85" d="M7 179L61 233" stroke="#70A02A" stroke-width="3.5"/>
<path opacity="0.66" d="M61 179L115 233" stroke="#70A02A" stroke-width="3.5"/>
<path opacity="0.15" d="M115 179L169 233" stroke="#70A02A" stroke-width="3.5"/>
<path opacity="0.13" d="M169 179L223 233" stroke="#70A02A" stroke-width="3.5"/>
<path opacity="0.15" d="M223 179L277 233" stroke="#70A02A" stroke-width="3.5"/>
<path opacity="0.58" d="M331 179L277 233" stroke="#70A02A" stroke-width="3.5"/>
<path opacity="0.89" d="M331 179L385 233" stroke="#70A02A" stroke-width="3.5"/>
<path opacity="0.16" d="M439 179L385 233" stroke="#70A02A" stroke-width="3.5"/>
<path opacity="0.35" d="M439 179L493 233" stroke="#70A02A" stroke-width="3.5"/>
<path opacity="0.34" d="M493 179L547 233" stroke="#70A02A" stroke-width="3.5"/>
<path opacity="0.98" d="M547 179L601 233" stroke="#70A02A" stroke-width="3.5"/>
<path opacity="0.15" d="M655 179L601 233" stroke="#70A02A" stroke-width="3.5"/>
<path opacity="0.49" d="M709 179L655 233" stroke="#70A02A" stroke-width="3.5"/>
<path opacity="0.92" d="M709 179L763 233" stroke="#70A02A" stroke-width="3.5"/>
<path opacity="0.07" d="M817 179L763 233" stroke="#70A02A" stroke-width="3.5"/>
<path opacity="0.38" d="M871 179L817 233" stroke="#70A02A" stroke-width="3.5"/>
<path opacity="0.44" d="M925 179L871 233" stroke="#70A02A" stroke-width="3.5"/>
<path opacity="0.16" d="M7 233L-47 287" stroke="#70A02A" stroke-width="3.5"/>
<path opacity="0.86" d="M61 233L7 287" stroke="#70A02A" stroke-width="3.5"/>
<path opacity="0.75" d="M61 233L115 287" stroke="#70A02A" stroke-width="3.5"/>
<path opacity="0.47" d="M115 233L169 287" stroke="#70A02A" stroke-width="3.5"/>
<path opacity="0.64" d="M223 233L169 287" stroke="#70A02A" stroke-width="3.5"/>
<path opacity="0.28" d="M223 233L277 287" stroke="#70A02A" stroke-width="3.5"/>
<path opacity="0.17" d="M331 233L277 287" stroke="#70A02A" stroke-width="3.5"/>
<path opacity="0.58" d="M331 233L385 287" stroke="#70A02A" stroke-width="3.5"/>
<path opacity="0.24" d="M385 233L439 287" stroke="#70A02A" stroke-width="3.5"/>
<path opacity="0.45" d="M493 233L439 287" stroke="#70A02A" stroke-width="3.5"/>
<path opacity="0.14" d="M493 233L547 287" stroke="#70A02A" stroke-width="3.5"/>
<path opacity="0.98" d="M601 233L547 287" stroke="#70A02A" stroke-width="3.5"/>
<path opacity="0.75" d="M655 233L601 287" stroke="#70A02A" stroke-width="3.5"/>
<path opacity="0.1" d="M655 233L709 287" stroke="#70A02A" stroke-width="3.5"/>
<path opacity="0.15" d="M709 233L763 287" stroke="#70A02A" stroke-width="3.5"/>
<path opacity="0.12" d="M817 233L763 287" stroke="#70A02A" stroke-width="3.5"/>
<path opacity="0.09" d="M871 233L817 287" stroke="#70A02A" stroke-width="3.5"/>
<path opacity="0.98" d="M871 233L925 287" stroke="#70A02A" stroke-width="3.5"/>
<path opacity="0.14" d="M-47 287L7 341" stroke="#70A02A" stroke-width="3.5"/>
<path opacity="0.5" d="M7 287L61 341" stroke="#70A02A" stroke-width="3.5"/>
<path opacity="0.76" d="M115 287L61 341" stroke="#70A02A" stroke-width="3.5"/>
<path opacity="0.87" d="M169 287L115 341" stroke="#70A02A" stroke-width="3.5"/>
<path opacity="0.49" d="M223 287L169 341" stroke="#70A02A" stroke-width="3.5"/>
<path opacity="0.9" d="M277 287L223 341" stroke="#70A02A" stroke-width="3.5"/>
<path opacity="0.78" d="M277 287L331 341" stroke="#70A02A" stroke-width="3.5"/>
<path opacity="0.18" d="M385 287L331 341" stroke="#70A02A" stroke-width="3.5"/>
<path opacity="0.77" d="M385 287L439 341" stroke="#70A02A" stroke-width="3.5"/>
<path opacity="0.79" d="M493 287L439 341" stroke="#70A02A" stroke-width="3.5"/>
<path opacity="0.9" d="M493 287L547 341" stroke="#70A02A" stroke-width="3.5"/>
<path opacity="0.85" d="M601 287L547 341" stroke="#70A02A" stroke-width="3.5"/>
<path opacity="0.95" d="M655 287L601 341" stroke="#70A02A" stroke-width="3.5"/>
<path opacity="0.77" d="M709 287L655 341" stroke="#70A02A" stroke-width="3.5"/>
<path opacity="0.42" d="M709 287L763 341" stroke="#70A02A" stroke-width="3.5"/>
<path opacity="0.78" d="M817 287L763 341" stroke="#70A02A" stroke-width="3.5"/>
<path opacity="0.78" d="M871 287L817 341" stroke="#70A02A" stroke-width="3.5"/>
<path opacity="0.23" d="M871 287L925 341" stroke="#70A02A" stroke-width="3.5"/>
<path opacity="0.31" d="M-47 341L7 395" stroke="#70A02A" stroke-width="3.5"/>
<path opacity="0.59" d="M7 341L61 395" stroke="#70A02A" stroke-width="3.5"/>
<path opacity="0.33" d="M61 341L115 395" stroke="#70A02A" stroke-width="3.5"/>
<path opacity="0.62" d="M115 341L169 395" stroke="#70A02A" stroke-width="3.5"/>
<path opacity="0.84" d="M223 341L169 395" stroke="#70A02A" stroke-width="3.5"/>
<path opacity="0.89" d="M223 341L277 395" stroke="#70A02A" stroke-width="3.5"/>
<path opacity="0.45" d="M277 341L331 395" stroke="#70A02A" stroke-width="3.5"/>
<path opacity="0.5" d="M331 341L385 395" stroke="#70A02A" stroke-width="3.5"/>
<path opacity="0.51" d="M385 341L439 395" stroke="#70A02A" stroke-width="3.5"/>
<path opacity="0.4" d="M493 341L439 395" stroke="#70A02A" stroke-width="3.5"/>
<path opacity="0.66" d="M493 341L547 395" stroke="#70A02A" stroke-width="3.5"/>
<path opacity="0.43" d="M547 341L601 395" stroke="#70A02A" stroke-width="3.5"/>
<path opacity="0.48" d="M655 341L601 395" stroke="#70A02A" stroke-width="3.5"/>
<path opacity="0.21" d="M709 341L655 395" stroke="#70A02A" stroke-width="3.5"/>
<path opacity="0.56" d="M709 341L763 395" stroke="#70A02A" stroke-width="3.5"/>
<path opacity="0.87" d="M763 341L817 395" stroke="#70A02A" stroke-width="3.5"/>
<path opacity="0.56" d="M817 341L871 395" stroke="#70A02A" stroke-width="3.5"/>
<path opacity="0.72" d="M925 341L871 395" stroke="#70A02A" stroke-width="3.5"/>
<path opacity="0.98" d="M-47 395L7 449" stroke="#70A02A" stroke-width="3.5"/>
<path opacity="0.94" d="M61 395L7 449" stroke="#70A02A" stroke-width="3.5"/>
<path opacity="0.7" d="M115 395L61 449" stroke="#70A02A" stroke-width="3.5"/>
<path opacity="0.28" d="M169 395L115 449" stroke="#70A02A" stroke-width="3.5"/>
<path opacity="0.27" d="M169 395L223 449" stroke="#70A02A" stroke-width="3.5"/>
<path opacity="0.61" d="M223 395L277 449" stroke="#70A02A" stroke-width="3.5"/>
<path opacity="0.31" d="M277 395L331 449" stroke="#70A02A" stroke-width="3.5"/>
<path opacity="0.4" d="M385 395L331 449" stroke="#70A02A" stroke-width="3.5"/>
<path opacity="0.26" d="M439 395L385 449" stroke="#70A02A" stroke-width="3.5"/>
<path opacity="0.13" d="M439 395L493 449" stroke="#70A02A" stroke-width="3.5"/>
<path opacity="0.54" d="M493 395L547 449" stroke="#70A02A" stroke-width="3.5"/>
<path opacity="0.52" d="M547 395L601 449" stroke="#70A02A" stroke-width="3.5"/>
<path opacity="0.67" d="M601 395L655 449" stroke="#70A02A" stroke-width="3.5"/>
<path opacity="0.87" d="M655 395L709 449" stroke="#70A02A" stroke-width="3.5"/>
<path opacity="0.68" d="M709 395L763 449" stroke="#70A02A" stroke-width="3.5"/>
<path opacity="0.93" d="M763 395L817 449" stroke="#70A02A" stroke-width="3.5"/>
<path opacity="0.26" d="M871 395L817 449" stroke="#70A02A" stroke-width="3.5"/>
<path opacity="0.51" d="M925 395L871 449" stroke="#70A02A" stroke-width="3.5"/>
</g>
</g>
<defs>
<clipPath id="clip0_1101_13528">
<rect width="920" height="406" rx="23" fill="white"/>
</clipPath>
<clipPath id="clip1_1101_13528">
<rect width="1422" height="800" fill="white" transform="translate(-101 -145)"/>
</clipPath>
</defs>
</svg>
