<svg width="120" height="117" viewBox="0 0 120 117" fill="none" xmlns="http://www.w3.org/2000/svg">
<path d="M118.83 77.3122C115.917 86.2148 96.8473 71.2255 90.4549 78.0723C87.2998 81.4516 91.2666 87.452 91.0408 92.0697C90.6974 99.0909 93.0396 108.185 88.0776 113.165C84.338 116.917 77.1069 117.42 72.1878 115.453C65.6699 112.847 62.6218 104.77 59.0279 98.7404C56.6041 94.6737 57.8813 86.8978 53.3367 85.5714C44.1505 82.8903 38.1859 105.426 29.3204 101.823C24.3759 99.8142 29.7429 89.8339 26.045 85.9854C20.2288 79.9325 4.48705 87.6344 1.3598 79.8442C-1.33223 73.1382 11.9286 68.4697 13.0558 61.332C13.922 55.8477 7.61382 50.4345 8.88988 45.0309C10.1389 39.7417 17.6654 37.6343 19.6747 32.5847C22.3351 25.8993 14.1241 13.8927 20.6215 10.8015C32.2623 5.26323 39.2113 32.2818 51.9727 34.106C54.7908 34.5089 57.3347 31.9262 60.0605 31.1055C62.9792 30.2267 66.4635 30.6079 69.0547 29.0028C78.9903 22.8479 81.2559 -3.66285 91.6324 1.71542C104.099 8.17713 70.5047 32.899 80.4819 42.7799C86.0344 48.2789 95.7159 34.3676 103.274 36.3533C107.999 37.5947 113.799 41.9711 113.708 46.8557C113.577 53.8531 97.8876 54.3408 98.2094 61.332C98.6053 69.9319 121.507 69.1302 118.83 77.3122Z" fill="#A3D32A" stroke="#A3D32A" stroke-width="0.208571"/>
</svg>
