<svg width="120" height="117" viewBox="0 0 120 117" fill="none" xmlns="http://www.w3.org/2000/svg">
<path d="M118.83 76.9497C115.917 85.9079 96.8473 70.8249 90.4548 77.7145C87.2998 81.115 91.2665 87.1529 91.0407 91.7994C90.6974 98.8645 93.0396 108.016 88.0775 113.026C84.338 116.802 77.1069 117.308 72.1878 115.329C65.6698 112.706 62.6218 104.579 59.0279 98.5118C56.6041 94.4197 57.8813 86.5952 53.3367 85.2605C44.1505 82.5626 38.1859 105.239 29.3204 101.614C24.3759 99.5923 29.7429 89.5496 26.045 85.6771C20.2288 79.5863 4.48705 87.3363 1.3598 79.4975C-1.33223 72.7496 11.9286 68.0519 13.0558 60.8696C13.922 55.351 7.61382 49.904 8.88988 44.4666C10.1389 39.1443 17.6654 37.0237 19.6747 31.9426C22.3351 25.2154 14.1241 13.1337 20.6215 10.0232C32.2623 4.45028 39.2113 31.6378 51.9727 33.4734C54.7908 33.8787 57.3347 31.28 60.0605 30.4541C62.9792 29.5698 66.4635 29.9534 69.0547 28.3382C78.9903 22.1449 81.2558 -4.5316 91.6324 0.880293C104.099 7.3824 70.5047 32.2588 80.4819 42.2015C86.0344 47.7349 95.7159 33.7366 103.274 35.7347C107.999 36.9839 113.799 41.3876 113.708 46.3028C113.577 53.3439 97.8875 53.8347 98.2094 60.8696C98.6053 69.5232 121.507 68.7165 118.83 76.9497Z" fill="#A3D32A" stroke="#A3D32A" stroke-width="0.208571"/>
</svg>
